<?xml version="1.0" encoding="utf-8"?>
<!-- Generator: Adobe Illustrator 16.0.0, SVG Export Plug-In . SVG Version: 6.00 Build 0)  -->
<!DOCTYPE svg PUBLIC "-//W3C//DTD SVG 1.1//EN" "http://www.w3.org/Graphics/SVG/1.1/DTD/svg11.dtd">
<svg version="1.1" id="Layer_1" xmlns="http://www.w3.org/2000/svg" xmlns:xlink="http://www.w3.org/1999/xlink" x="0px" y="0px"
	 width="2000px" height="2000px" viewBox="0 0 2000 2000" enable-background="new 0 0 2000 2000" xml:space="preserve">
<g>
	<g>
		<path fill="#35B629" d="M1003.998,2003.998c-328,0-656-0.109-984,0.385c-13.695,0.02-16.389-2.689-16.379-16.385
			c0.434-656,0.434-1312,0-1967.998C3.609,6.307,6.301,3.609,19.998,3.619c656,0.434,1311.998,0.434,1967.998,0
			c13.693-0.008,16.391,2.68,16.381,16.379c-0.434,655.998-0.434,1311.998,0,1967.998c0.008,13.691-2.678,16.406-16.377,16.387
			C1660,2003.889,1331.998,2003.998,1003.998,2003.998z M1336.721,1004.424c-0.115-183.24-148.691-331.803-331.818-331.789
			c-182.805,0.014-332.088,149.141-332.264,331.914c-0.178,183.984,148.793,332.406,333.398,332.17
			C1189.76,1336.482,1336.84,1188.688,1336.721,1004.424z"/>
		<path fill-rule="evenodd" clip-rule="evenodd" fill="#F2FAF2" d="M1336.721,1004.424
			c0.119,184.264-146.961,332.059-330.684,332.295c-184.605,0.236-333.576-148.186-333.398-332.17
			c0.176-182.773,149.459-331.9,332.264-331.914C1188.029,672.621,1336.605,821.184,1336.721,1004.424z M1316.617,1005.471
			c0.123-172.197-138.658-312.133-310.174-312.752c-172.402-0.623-313.484,139.582-313.717,311.766
			c-0.23,171.82,139.018,311.691,310.748,312.133C1177.32,1317.066,1316.494,1178.779,1316.617,1005.471z"/>
		<path fill-rule="evenodd" clip-rule="evenodd" fill="#36B72A" d="M1316.617,1005.471
			c-0.123,173.309-139.297,311.596-313.143,311.146c-171.73-0.441-310.979-140.312-310.748-312.133
			c0.232-172.184,141.314-312.389,313.717-311.766C1177.959,693.338,1316.74,833.273,1316.617,1005.471z M1050.131,987.371
			c-5.994,0-12.033-0.469-17.975,0.094c-14.047,1.33-34.963-6.197-35.373,17.236c-0.373,21.391,19.234,17.254,33.258,18.387
			c5.674,0.459,11.133-1.074,12.824,8.102c7.822,42.436,2.105,49.9-40.07,49.391c-1.998-0.023-3.998-0.014-5.994-0.105
			c-31.287-1.426-47.189-15.248-53.23-46.264c-4.381-22.498-4.451-44.99,0.215-67.453c8.223-39.576,37.846-59.73,77.971-52.469
			c13.723,2.484,27.098,6.859,40.793,9.549c13.877,2.725,27.996,2.633,32.152-14.574c3.746-15.508-6.863-23.258-19.814-27.699
			c-29.963-10.275-60.664-14.867-92.359-10.889c-58.648,7.361-93.906,40.461-104.787,98.471
			c-15.797,84.232,26.672,146.633,105.221,154.373c16.617,1.639,33.268,1.295,49.826-1.115
			c68.742-10.01,70.025-12.055,70.639-81.562C1103.994,976.129,1098.416,988.496,1050.131,987.371z"/>
		<path fill-rule="evenodd" clip-rule="evenodd" fill="#F2FAF2" d="M1050.131,987.385c48.285,1.111,53.863-11.256,53.295,53.457
			c-0.613,69.508-1.896,71.553-70.639,81.562c-16.559,2.41-33.209,2.754-49.826,1.115c-78.549-7.74-121.018-70.141-105.221-154.373
			c10.881-58.01,46.139-91.109,104.787-98.471c31.695-3.979,62.396,0.613,92.359,10.889c12.951,4.441,23.561,12.191,19.814,27.699
			c-4.156,17.207-18.275,17.299-32.152,14.574c-13.695-2.689-27.07-7.064-40.793-9.549c-40.125-7.262-69.748,12.893-77.971,52.469
			c-4.666,22.463-4.596,44.955-0.215,67.453c6.041,31.016,21.943,44.838,53.23,46.264c1.996,0.092,3.996,0.082,5.994,0.105
			c42.176,0.51,47.893-6.955,40.07-49.391c-1.691-9.176-7.15-7.643-12.824-8.102c-14.023-1.133-33.631,3.004-33.258-18.387
			c0.41-23.434,21.326-15.906,35.373-17.236C1038.098,986.902,1044.137,987.371,1050.131,987.385z"/>
	</g>
</g>
</svg>
